<svg version="1.1" id="Layer_1" xmlns="http://www.w3.org/2000/svg" xmlns:xlink="http://www.w3.org/1999/xlink" x="0px" y="0px"
	 width="100%" viewBox="0 0 497 497" enable-background="new 0 0 497 497" xml:space="preserve">
<path fill="#644A9E" opacity="1.000000" stroke="none" 
	d="
M0.999999,272.000000 
	C1.000000,257.312439 1.000000,242.624878 1.375780,227.270782 
	C2.497518,220.426132 3.108713,214.228210 4.013305,208.073410 
	C7.497166,184.369415 15.106513,161.885925 25.383541,140.384827 
	C36.012272,118.147911 50.006596,97.997833 66.727364,79.894920 
	C78.923439,66.690720 92.591667,55.095863 107.410919,44.824799 
	C124.253738,33.151218 142.146317,23.472406 161.332718,16.422022 
	C178.914841,9.961163 196.903198,4.766626 215.695084,2.949965 
	C219.490753,2.583028 223.233078,1.664322 227.000000,1.000000 
	C241.687561,1.000000 256.375122,1.000000 271.729218,1.375782 
	C278.573914,2.497522 284.771912,3.108696 290.926758,4.013304 
	C314.630737,7.497199 337.114197,15.106618 358.615265,25.383612 
	C380.852173,36.012318 401.002197,50.006683 419.105103,66.727425 
	C432.309326,78.923477 443.904175,92.591721 454.175232,107.410965 
	C465.848785,124.253777 475.527618,142.146332 482.578003,161.332733 
	C489.038879,178.914856 494.233307,196.903214 496.050018,215.695084 
	C496.416962,219.490753 497.335693,223.233078 498.000000,227.000000 
	C498.000000,241.687561 498.000000,256.375122 497.624207,271.729218 
	C496.502472,278.573883 495.891266,284.771790 494.986664,290.926605 
	C491.502808,314.630585 483.893433,337.114044 473.616425,358.615143 
	C462.987701,380.852081 448.993439,401.002197 432.272614,419.105072 
	C420.076569,432.309296 406.408356,443.904175 391.589111,454.175262 
	C374.746307,465.848816 356.853668,475.527588 337.667267,482.577942 
	C320.085144,489.038788 302.096771,494.233307 283.304901,496.049957 
	C279.509247,496.416931 275.766907,497.335663 272.000000,498.000000 
	C257.312439,498.000000 242.624878,498.000000 227.270782,497.624207 
	C220.426102,496.502472 214.228149,495.891296 208.073318,494.986664 
	C184.369324,491.502899 161.885895,483.893372 140.384796,473.616394 
	C118.147873,462.987671 97.997772,448.993378 79.894867,432.272614 
	C66.690613,420.076569 55.095795,406.408295 44.824768,391.589020 
	C33.151211,374.746185 23.472389,356.853638 16.422014,337.667236 
	C9.961151,320.085144 4.766615,302.096771 2.949960,283.304901 
	C2.583026,279.509247 1.664318,275.766907 0.999999,272.000000 
M194.630600,151.910339 
	C182.574982,147.095856 170.700684,141.740860 158.412781,137.618790 
	C146.110519,133.491898 133.438110,130.169922 120.177429,132.895325 
	C108.225914,135.351654 102.024193,144.518799 104.445946,156.487457 
	C105.266190,160.541229 106.048271,164.904709 108.135353,168.345718 
	C115.535751,180.546906 123.335823,192.517044 131.354980,204.323074 
	C133.213806,207.059708 134.075104,208.887939 132.809143,212.251007 
	C129.647476,220.650085 137.204971,230.054092 145.692596,227.628433 
	C152.660492,225.637115 154.511703,230.037964 157.402710,233.176270 
	C142.894165,242.545532 128.379318,251.364548 114.479607,261.065002 
	C102.711571,269.277771 91.685120,278.619141 85.008102,291.783112 
	C78.423065,304.765747 82.717087,316.443115 96.490593,320.978577 
	C104.762199,323.702301 113.661896,325.277283 122.369514,325.768097 
	C143.791077,326.975647 164.887405,323.573517 185.851089,319.449127 
	C190.975479,318.440948 196.102722,317.447327 201.419006,316.409851 
	C201.721954,318.351807 201.926590,319.483490 202.072052,320.622681 
	C204.945068,343.121613 208.778793,365.428589 215.804825,387.060944 
	C219.573517,398.664398 224.096893,409.918549 231.916138,419.548523 
	C242.032562,432.007629 256.194214,432.045868 266.128662,419.354797 
	C269.087463,415.574982 272.134857,411.587036 273.886902,407.194031 
	C278.439606,395.778778 282.452972,384.137909 286.326538,372.469238 
	C287.388702,369.269531 288.349365,367.253571 292.005127,366.098267 
	C300.296631,363.477844 303.169556,352.763245 296.718353,347.186279 
	C291.636383,342.792999 293.251007,338.856018 294.542511,333.776093 
	C296.440491,334.691925 297.897858,335.437683 299.389099,336.108063 
	C312.751556,342.115417 325.944305,348.548889 339.536499,353.982666 
	C352.857117,359.307892 366.678314,363.310059 381.276550,362.968445 
	C398.834534,362.557617 407.088440,351.706329 402.708679,334.722687 
	C401.594696,330.403107 400.212677,325.917267 397.863525,322.196045 
	C391.035767,311.380157 384.210724,300.477783 376.336151,290.431122 
	C368.353119,280.246063 359.118805,271.041779 350.220490,261.172729 
	C351.880890,260.207245 353.642609,259.301361 355.281860,258.211334 
	C371.479004,247.440750 388.034027,237.155029 403.700104,225.658707 
	C413.486816,218.476868 421.940125,209.441437 425.212860,197.001877 
	C427.347473,188.888351 424.770599,181.339325 417.502563,177.165527 
	C412.684967,174.398926 407.226105,172.378052 401.800201,171.113251 
	C387.169220,167.702652 372.326050,168.938095 357.508362,169.944336 
	C355.587799,170.074768 352.974792,169.097427 351.671204,167.706589 
	C344.660858,160.227020 334.886810,161.729446 330.608856,171.092361 
	C330.007507,172.408493 328.753448,174.065857 327.519684,174.352600 
	C317.509247,176.679062 307.431519,178.716156 296.884949,180.944839 
	C296.564453,178.920227 296.232605,177.172455 296.017151,175.410431 
	C293.223236,152.560486 289.311615,129.933868 282.206665,107.974762 
	C278.397858,96.202957 273.797699,84.791969 265.803711,75.084251 
	C255.987808,63.164070 241.826553,63.114624 232.193710,75.229012 
	C229.104630,79.113861 225.854156,83.227264 224.145859,87.786301 
	C219.018860,101.469086 214.247833,115.313316 210.067154,129.312317 
	C207.479645,137.976654 206.219315,147.037323 204.252274,156.450912 
	C200.951080,154.894562 198.128403,153.563828 194.630600,151.910339 
z"/>
<path fill="#FFFFFF" opacity="1.000000" stroke="none" 
	d="
M226.531342,1.000000 
	C223.233078,1.664322 219.490753,2.583028 215.695084,2.949965 
	C196.903198,4.766626 178.914841,9.961163 161.332718,16.422022 
	C142.146317,23.472406 124.253738,33.151218 107.410919,44.824799 
	C92.591667,55.095863 78.923439,66.690720 66.727364,79.894920 
	C50.006596,97.997833 36.012272,118.147911 25.383541,140.384827 
	C15.106513,161.885925 7.497166,184.369415 4.013305,208.073410 
	C3.108713,214.228210 2.497518,220.426132 1.375780,226.802124 
	C1.000000,151.739624 1.000000,76.479248 1.000000,1.000000 
	C76.020752,1.000000 151.041718,1.000000 226.531342,1.000000 
z"/>
<path fill="#FFFFFF" opacity="1.000000" stroke="none" 
	d="
M272.468658,498.000000 
	C275.766907,497.335663 279.509247,496.416931 283.304901,496.049957 
	C302.096771,494.233307 320.085144,489.038788 337.667267,482.577942 
	C356.853668,475.527588 374.746307,465.848816 391.589111,454.175262 
	C406.408356,443.904175 420.076569,432.309296 432.272614,419.105072 
	C448.993439,401.002197 462.987701,380.852081 473.616425,358.615143 
	C483.893433,337.114044 491.502808,314.630585 494.986664,290.926605 
	C495.891266,284.771790 496.502472,278.573883 497.624207,272.197876 
	C498.000000,347.260376 498.000000,422.520721 498.000000,498.000000 
	C422.979248,498.000000 347.958282,498.000000 272.468658,498.000000 
z"/>
<path fill="#FFFFFF" opacity="1.000000" stroke="none" 
	d="
M0.999999,272.468658 
	C1.664318,275.766907 2.583026,279.509247 2.949960,283.304901 
	C4.766615,302.096771 9.961151,320.085144 16.422014,337.667236 
	C23.472389,356.853638 33.151211,374.746185 44.824768,391.589020 
	C55.095795,406.408295 66.690613,420.076569 79.894867,432.272614 
	C97.997772,448.993378 118.147873,462.987671 140.384796,473.616394 
	C161.885895,483.893372 184.369324,491.502899 208.073318,494.986664 
	C214.228149,495.891296 220.426102,496.502472 226.802124,497.624207 
	C151.739639,498.000000 76.479263,498.000000 1.000000,498.000000 
	C1.000000,422.979248 1.000000,347.958282 0.999999,272.468658 
z"/>
<path fill="#FFFFFF" opacity="1.000000" stroke="none" 
	d="
M498.000000,226.531342 
	C497.335693,223.233078 496.416962,219.490753 496.050018,215.695084 
	C494.233307,196.903214 489.038879,178.914856 482.578003,161.332733 
	C475.527618,142.146332 465.848785,124.253777 454.175232,107.410965 
	C443.904175,92.591721 432.309326,78.923477 419.105103,66.727425 
	C401.002197,50.006683 380.852173,36.012318 358.615265,25.383612 
	C337.114197,15.106618 314.630737,7.497199 290.926758,4.013304 
	C284.771912,3.108696 278.573914,2.497522 272.197876,1.375782 
	C347.260376,1.000000 422.520721,1.000000 498.000000,1.000000 
	C498.000000,76.020752 498.000000,151.041718 498.000000,226.531342 
z"/>
<path fill="#D9C358" opacity="1.000000" stroke="none" 
	d="
M194.968170,152.071716 
	C198.128403,153.563828 200.951080,154.894562 204.252274,156.450912 
	C206.219315,147.037323 207.479645,137.976654 210.067154,129.312317 
	C214.247833,115.313316 219.018860,101.469086 224.145859,87.786301 
	C225.854156,83.227264 229.104630,79.113861 232.193710,75.229012 
	C241.826553,63.114624 255.987808,63.164070 265.803711,75.084251 
	C273.797699,84.791969 278.397858,96.202957 282.206665,107.974762 
	C289.311615,129.933868 293.223236,152.560486 296.017151,175.410431 
	C296.232605,177.172455 296.564453,178.920227 296.884949,180.944839 
	C307.431519,178.716156 317.509247,176.679062 327.519684,174.352600 
	C328.753448,174.065857 330.007507,172.408493 330.608856,171.092361 
	C334.886810,161.729446 344.660858,160.227020 351.671204,167.706589 
	C352.974792,169.097427 355.587799,170.074768 357.508362,169.944336 
	C372.326050,168.938095 387.169220,167.702652 401.800201,171.113251 
	C407.226105,172.378052 412.684967,174.398926 417.502563,177.165527 
	C424.770599,181.339325 427.347473,188.888351 425.212860,197.001877 
	C421.940125,209.441437 413.486816,218.476868 403.700104,225.658707 
	C388.034027,237.155029 371.479004,247.440750 355.281860,258.211334 
	C353.642609,259.301361 351.880890,260.207245 350.220490,261.172729 
	C359.118805,271.041779 368.353119,280.246063 376.336151,290.431122 
	C384.210724,300.477783 391.035767,311.380157 397.863525,322.196045 
	C400.212677,325.917267 401.594696,330.403107 402.708679,334.722687 
	C407.088440,351.706329 398.834534,362.557617 381.276550,362.968445 
	C366.678314,363.310059 352.857117,359.307892 339.536499,353.982666 
	C325.944305,348.548889 312.751556,342.115417 299.389099,336.108063 
	C297.897858,335.437683 296.440491,334.691925 294.542511,333.776093 
	C293.251007,338.856018 291.636383,342.792999 296.718353,347.186279 
	C303.169556,352.763245 300.296631,363.477844 292.005127,366.098267 
	C288.349365,367.253571 287.388702,369.269531 286.326538,372.469238 
	C282.452972,384.137909 278.439606,395.778778 273.886902,407.194031 
	C272.134857,411.587036 269.087463,415.574982 266.128662,419.354797 
	C256.194214,432.045868 242.032562,432.007629 231.916138,419.548523 
	C224.096893,409.918549 219.573517,398.664398 215.804825,387.060944 
	C208.778793,365.428589 204.945068,343.121613 202.072052,320.622681 
	C201.926590,319.483490 201.721954,318.351807 201.419006,316.409851 
	C196.102722,317.447327 190.975479,318.440948 185.851089,319.449127 
	C164.887405,323.573517 143.791077,326.975647 122.369514,325.768097 
	C113.661896,325.277283 104.762199,323.702301 96.490593,320.978577 
	C82.717087,316.443115 78.423065,304.765747 85.008102,291.783112 
	C91.685120,278.619141 102.711571,269.277771 114.479607,261.065002 
	C128.379318,251.364548 142.894165,242.545532 157.402710,233.176270 
	C154.511703,230.037964 152.660492,225.637115 145.692596,227.628433 
	C137.204971,230.054092 129.647476,220.650085 132.809143,212.251007 
	C134.075104,208.887939 133.213806,207.059708 131.354980,204.323074 
	C123.335823,192.517044 115.535751,180.546906 108.135353,168.345718 
	C106.048271,164.904709 105.266190,160.541229 104.445946,156.487457 
	C102.024193,144.518799 108.225914,135.351654 120.177429,132.895325 
	C133.438110,130.169922 146.110519,133.491898 158.412781,137.618790 
	C170.700684,141.740860 182.574982,147.095856 194.968170,152.071716 
M303.972534,221.506271 
	C317.235474,232.874695 330.462677,244.285553 343.821014,255.540787 
	C345.051147,256.577271 347.626556,257.571930 348.720367,256.986084 
	C371.073792,245.013901 393.063171,232.363419 410.505768,213.533752 
	C415.011383,208.669846 418.459320,202.467896 421.085480,196.321838 
	C423.723450,190.148117 421.395966,184.256882 415.606812,180.773148 
	C411.412537,178.249161 406.641510,176.288757 401.871277,175.190201 
	C387.076874,171.783081 372.072937,172.843552 357.137177,174.311584 
	C355.905457,174.432648 354.286285,176.249908 353.829315,177.609222 
	C352.131409,182.660263 348.994873,186.028763 343.715668,186.830322 
	C338.404999,187.636658 334.419281,185.286682 331.447052,180.865280 
	C330.744568,179.820282 329.169128,178.422241 328.265869,178.595718 
	C317.872864,180.591766 307.532104,182.859695 297.255737,185.038712 
	C297.894348,194.694260 298.698883,203.479095 298.954559,212.279892 
	C299.066956,216.148422 300.127136,219.030014 303.972534,221.506271 
M139.941071,321.667267 
	C159.015915,318.775269 178.084900,315.843384 197.171402,313.030457 
	C200.361298,312.560303 201.155060,311.070831 200.899841,307.986694 
	C199.938522,296.370361 199.375122,284.719360 198.281830,273.117188 
	C198.061539,270.779266 196.706223,268.016815 194.973373,266.440308 
	C184.753952,257.143158 174.321411,248.076218 163.795700,239.125717 
	C162.653595,238.154526 160.020096,237.605133 158.810272,238.244644 
	C139.335022,248.539505 120.365288,259.714294 104.138710,274.788239 
	C98.588966,279.943756 93.442093,285.880127 89.456146,292.295380 
	C82.421791,303.617035 86.048927,312.823242 98.518112,317.667572 
	C101.140808,318.686493 103.907974,319.726288 106.668922,319.927277 
	C117.436081,320.711060 128.227509,321.161652 139.941071,321.667267 
M277.479919,323.948822 
	C268.024963,318.047424 258.654022,312.002869 249.045700,306.362732 
	C247.072632,305.204498 244.020462,304.790375 241.793106,305.345978 
	C231.305450,307.961975 220.998917,311.319122 210.484100,313.803986 
	C206.325180,314.786865 205.462540,316.601959 206.087219,320.320984 
	C208.208588,332.950897 209.792145,345.687164 212.370178,358.220520 
	C216.027985,376.003204 220.504318,393.649597 229.968369,409.416870 
	C232.735733,414.027344 236.447510,418.333893 240.544159,421.818359 
	C245.909485,426.381897 252.060364,426.333557 257.479645,421.823425 
	C261.367401,418.587891 264.883667,414.574799 267.564880,410.283325 
	C275.318390,397.873260 279.446259,383.952850 282.844818,369.852173 
	C283.207184,368.348694 282.039795,365.864532 280.781830,364.698639 
	C277.181610,361.361908 275.259674,357.550812 276.244293,352.711731 
	C277.266632,347.687012 280.498718,344.320953 285.496674,343.347412 
	C288.248138,342.811523 288.830750,341.501678 289.223938,339.100830 
	C290.480164,331.430206 290.574799,331.455536 283.714874,327.591156 
	C281.830475,326.529602 279.986328,325.396454 277.479919,323.948822 
M231.386719,82.961143 
	C217.998672,105.492622 213.082520,130.645813 209.003036,156.019333 
	C208.789490,157.347610 210.391022,159.616638 211.756485,160.450714 
	C227.522552,170.080826 243.367172,179.585236 259.314758,188.911240 
	C261.054504,189.928619 263.733856,190.295166 265.693298,189.811890 
	C273.285675,187.939178 280.723053,185.443405 288.302399,183.509842 
	C291.494995,182.695374 292.743103,181.381287 292.188690,178.009430 
	C289.893738,164.051315 288.241791,149.969559 285.448639,136.115677 
	C281.724335,117.643234 276.904938,99.389519 266.708191,83.197098 
	C255.812134,65.894188 243.628128,65.707161 231.386719,82.961143 
M321.615723,275.044891 
	C315.063599,277.916107 308.440979,280.642639 302.014648,283.772156 
	C300.612000,284.455231 299.180206,286.493744 299.001190,288.050537 
	C297.557129,300.609833 296.314148,313.195526 295.295715,325.796265 
	C295.172729,327.318085 296.328339,329.765350 297.607727,330.455261 
	C317.118500,340.976654 337.157593,350.329102 358.718018,355.906158 
	C367.744629,358.241028 376.914124,360.190094 386.327820,358.278534 
	C396.978455,356.115814 402.090179,349.141205 399.341553,338.727478 
	C397.373596,331.271484 394.381470,323.850250 390.532074,317.170898 
	C379.305756,297.691345 364.083252,281.337067 348.079803,265.732056 
	C347.001190,264.680298 344.088959,264.432434 342.579132,265.084076 
	C335.711548,268.048035 329.040802,271.468140 321.615723,275.044891 
M200.052383,194.544922 
	C201.175583,184.460083 202.409973,174.385010 203.299454,164.279602 
	C203.429626,162.800873 202.330429,160.370987 201.103027,159.742569 
	C183.600800,150.781570 165.707565,142.529678 146.374664,138.542969 
	C137.913040,136.798080 128.868744,136.446533 120.258369,137.258362 
	C111.659042,138.069122 107.358574,144.618698 108.182518,153.292328 
	C108.585098,157.530273 109.717545,161.844254 111.325005,165.796219 
	C117.033829,179.831406 126.020653,191.828247 135.794159,203.230072 
	C136.710892,204.299530 139.265488,204.607193 140.884445,204.310974 
	C145.552673,203.456833 149.545425,204.424118 152.733871,207.862259 
	C156.065323,211.454636 157.143478,215.791794 155.084961,220.331009 
	C152.667801,225.660995 157.866638,226.728394 160.020447,229.281189 
	C160.907440,230.332474 163.970047,230.576996 165.477341,229.909988 
	C175.665939,225.401443 185.749268,220.643967 195.737000,215.704849 
	C197.169205,214.996582 198.621109,212.970688 198.828903,211.392029 
	C199.522202,206.124786 199.653839,200.783630 200.052383,194.544922 
M281.247101,209.217606 
	C275.805725,205.384796 270.512939,201.308014 264.841064,197.853638 
	C262.898621,196.670624 259.682831,196.124710 257.599548,196.856247 
	C240.661331,202.804230 223.878799,209.193863 206.985748,215.273682 
	C203.575500,216.501053 202.518784,218.572845 202.511200,221.974152 
	C202.480377,235.785706 202.163193,249.597885 202.277542,263.407135 
	C202.293777,265.367035 203.604294,267.971619 205.166260,269.159637 
	C217.745117,278.726929 230.457336,288.125275 243.333847,297.287048 
	C245.022446,298.488525 248.161285,298.914093 250.137299,298.246124 
	C263.837250,293.615021 277.379852,288.520935 291.038849,283.764709 
	C294.269257,282.639801 295.240997,280.785706 295.263977,277.508942 
	C295.357361,264.198029 294.971558,250.824661 296.147247,237.597412 
	C297.287811,224.765610 293.669830,215.349091 281.247101,209.217606 
M255.033524,191.060196 
	C239.668610,181.680206 224.303696,172.300201 208.938782,162.920212 
	C208.360062,163.295624 207.781357,163.671021 207.202637,164.046432 
	C205.697800,179.913727 204.192963,195.781006 202.638336,212.173233 
	C220.828156,205.597260 237.970352,199.408890 255.085220,193.145859 
	C255.411133,193.026596 255.414108,192.024933 255.033524,191.060196 
M312.927643,274.496704 
	C322.646088,269.958282 332.364532,265.419830 343.418518,260.257721 
	C328.619263,247.535751 314.818237,235.671906 301.017181,223.808060 
	C300.580261,224.159058 300.143341,224.510056 299.706421,224.861053 
	C299.706421,243.071671 299.706421,261.282288 299.706421,280.072723 
	C304.065399,278.244141 308.151062,276.530212 312.927643,274.496704 
M273.237183,294.697021 
	C266.082153,297.214233 258.927124,299.731445 250.470184,302.706665 
	C264.347198,311.164795 277.200562,318.998993 291.173798,327.515778 
	C292.513916,313.311310 293.733826,300.381165 295.031555,286.626007 
	C287.321228,289.475372 280.643616,291.943085 273.237183,294.697021 
M183.372192,225.849991 
	C177.586533,228.658630 171.800858,231.467270 164.944092,234.795883 
	C176.106491,244.606659 186.550446,253.785980 197.834839,263.703979 
	C197.834839,248.119873 197.834839,234.141037 197.834839,219.332993 
	C192.758087,221.608154 188.401901,223.560410 183.372192,225.849991 
M204.149368,301.182343 
	C204.527847,304.383392 204.906326,307.584442 205.348984,311.328400 
	C217.469208,307.965881 228.847656,304.809143 241.309906,301.351746 
	C228.011688,291.565521 215.930054,282.674591 202.532394,272.815186 
	C203.104263,282.898224 203.596695,291.580872 204.149368,301.182343 
M275.380463,200.115250 
	C281.653961,204.638779 287.927460,209.162292 295.323547,214.495270 
	C294.525940,204.444489 293.831543,195.694580 293.076904,186.185577 
	C283.969971,188.792496 275.936035,191.092255 266.660065,193.747559 
	C270.102570,196.259079 272.453339,197.974091 275.380463,200.115250 
z"/>
<path fill="#654B9E" opacity="1.000000" stroke="none" 
	d="
M303.682251,221.282730 
	C300.127136,219.030014 299.066956,216.148422 298.954559,212.279892 
	C298.698883,203.479095 297.894348,194.694260 297.255737,185.038712 
	C307.532104,182.859695 317.872864,180.591766 328.265869,178.595718 
	C329.169128,178.422241 330.744568,179.820282 331.447052,180.865280 
	C334.419281,185.286682 338.404999,187.636658 343.715668,186.830322 
	C348.994873,186.028763 352.131409,182.660263 353.829315,177.609222 
	C354.286285,176.249908 355.905457,174.432648 357.137177,174.311584 
	C372.072937,172.843552 387.076874,171.783081 401.871277,175.190201 
	C406.641510,176.288757 411.412537,178.249161 415.606812,180.773148 
	C421.395966,184.256882 423.723450,190.148117 421.085480,196.321838 
	C418.459320,202.467896 415.011383,208.669846 410.505768,213.533752 
	C393.063171,232.363419 371.073792,245.013901 348.720367,256.986084 
	C347.626556,257.571930 345.051147,256.577271 343.821014,255.540787 
	C330.462677,244.285553 317.235474,232.874695 303.682251,221.282730 
z"/>
<path fill="#654B9E" opacity="1.000000" stroke="none" 
	d="
M139.475494,321.701721 
	C128.227509,321.161652 117.436081,320.711060 106.668922,319.927277 
	C103.907974,319.726288 101.140808,318.686493 98.518112,317.667572 
	C86.048927,312.823242 82.421791,303.617035 89.456146,292.295380 
	C93.442093,285.880127 98.588966,279.943756 104.138710,274.788239 
	C120.365288,259.714294 139.335022,248.539505 158.810272,238.244644 
	C160.020096,237.605133 162.653595,238.154526 163.795700,239.125717 
	C174.321411,248.076218 184.753952,257.143158 194.973373,266.440308 
	C196.706223,268.016815 198.061539,270.779266 198.281830,273.117188 
	C199.375122,284.719360 199.938522,296.370361 200.899841,307.986694 
	C201.155060,311.070831 200.361298,312.560303 197.171402,313.030457 
	C178.084900,315.843384 159.015915,318.775269 139.475494,321.701721 
z"/>
<path fill="#654B9E" opacity="1.000000" stroke="none" 
	d="
M277.801819,324.122498 
	C279.986328,325.396454 281.830475,326.529602 283.714874,327.591156 
	C290.574799,331.455536 290.480164,331.430206 289.223938,339.100830 
	C288.830750,341.501678 288.248138,342.811523 285.496674,343.347412 
	C280.498718,344.320953 277.266632,347.687012 276.244293,352.711731 
	C275.259674,357.550812 277.181610,361.361908 280.781830,364.698639 
	C282.039795,365.864532 283.207184,368.348694 282.844818,369.852173 
	C279.446259,383.952850 275.318390,397.873260 267.564880,410.283325 
	C264.883667,414.574799 261.367401,418.587891 257.479645,421.823425 
	C252.060364,426.333557 245.909485,426.381897 240.544159,421.818359 
	C236.447510,418.333893 232.735733,414.027344 229.968369,409.416870 
	C220.504318,393.649597 216.027985,376.003204 212.370178,358.220520 
	C209.792145,345.687164 208.208588,332.950897 206.087219,320.320984 
	C205.462540,316.601959 206.325180,314.786865 210.484100,313.803986 
	C220.998917,311.319122 231.305450,307.961975 241.793106,305.345978 
	C244.020462,304.790375 247.072632,305.204498 249.045700,306.362732 
	C258.654022,312.002869 268.024963,318.047424 277.801819,324.122498 
z"/>
<path fill="#654B9E" opacity="1.000000" stroke="none" 
	d="
M231.596848,82.666550 
	C243.628128,65.707161 255.812134,65.894188 266.708191,83.197098 
	C276.904938,99.389519 281.724335,117.643234 285.448639,136.115677 
	C288.241791,149.969559 289.893738,164.051315 292.188690,178.009430 
	C292.743103,181.381287 291.494995,182.695374 288.302399,183.509842 
	C280.723053,185.443405 273.285675,187.939178 265.693298,189.811890 
	C263.733856,190.295166 261.054504,189.928619 259.314758,188.911240 
	C243.367172,179.585236 227.522552,170.080826 211.756485,160.450714 
	C210.391022,159.616638 208.789490,157.347610 209.003036,156.019333 
	C213.082520,130.645813 217.998672,105.492622 231.596848,82.666550 
z"/>
<path fill="#654B9E" opacity="1.000000" stroke="none" 
	d="
M321.957489,274.884521 
	C329.040802,271.468140 335.711548,268.048035 342.579132,265.084076 
	C344.088959,264.432434 347.001190,264.680298 348.079803,265.732056 
	C364.083252,281.337067 379.305756,297.691345 390.532074,317.170898 
	C394.381470,323.850250 397.373596,331.271484 399.341553,338.727478 
	C402.090179,349.141205 396.978455,356.115814 386.327820,358.278534 
	C376.914124,360.190094 367.744629,358.241028 358.718018,355.906158 
	C337.157593,350.329102 317.118500,340.976654 297.607727,330.455261 
	C296.328339,329.765350 295.172729,327.318085 295.295715,325.796265 
	C296.314148,313.195526 297.557129,300.609833 299.001190,288.050537 
	C299.180206,286.493744 300.612000,284.455231 302.014648,283.772156 
	C308.440979,280.642639 315.063599,277.916107 321.957489,274.884521 
z"/>
<path fill="#654B9E" opacity="1.000000" stroke="none" 
	d="
M200.026535,195.007858 
	C199.653839,200.783630 199.522202,206.124786 198.828903,211.392029 
	C198.621109,212.970688 197.169205,214.996582 195.737000,215.704849 
	C185.749268,220.643967 175.665939,225.401443 165.477341,229.909988 
	C163.970047,230.576996 160.907440,230.332474 160.020447,229.281189 
	C157.866638,226.728394 152.667801,225.660995 155.084961,220.331009 
	C157.143478,215.791794 156.065323,211.454636 152.733871,207.862259 
	C149.545425,204.424118 145.552673,203.456833 140.884445,204.310974 
	C139.265488,204.607193 136.710892,204.299530 135.794159,203.230072 
	C126.020653,191.828247 117.033829,179.831406 111.325005,165.796219 
	C109.717545,161.844254 108.585098,157.530273 108.182518,153.292328 
	C107.358574,144.618698 111.659042,138.069122 120.258369,137.258362 
	C128.868744,136.446533 137.913040,136.798080 146.374664,138.542969 
	C165.707565,142.529678 183.600800,150.781570 201.103027,159.742569 
	C202.330429,160.370987 203.429626,162.800873 203.299454,164.279602 
	C202.409973,174.385010 201.175583,184.460083 200.026535,195.007858 
z"/>
<path fill="#654B9D" opacity="1.000000" stroke="none" 
	d="
M281.532074,209.436203 
	C293.669830,215.349091 297.287811,224.765610 296.147247,237.597412 
	C294.971558,250.824661 295.357361,264.198029 295.263977,277.508942 
	C295.240997,280.785706 294.269257,282.639801 291.038849,283.764709 
	C277.379852,288.520935 263.837250,293.615021 250.137299,298.246124 
	C248.161285,298.914093 245.022446,298.488525 243.333847,297.287048 
	C230.457336,288.125275 217.745117,278.726929 205.166260,269.159637 
	C203.604294,267.971619 202.293777,265.367035 202.277542,263.407135 
	C202.163193,249.597885 202.480377,235.785706 202.511200,221.974152 
	C202.518784,218.572845 203.575500,216.501053 206.985748,215.273682 
	C223.878799,209.193863 240.661331,202.804230 257.599548,196.856247 
	C259.682831,196.124710 262.898621,196.670624 264.841064,197.853638 
	C270.512939,201.308014 275.805725,205.384796 281.532074,209.436203 
M227.405441,239.117264 
	C223.184601,249.051971 224.290115,258.403015 231.184494,266.663818 
	C237.529999,274.266968 245.948761,277.314667 255.730164,275.494019 
	C267.838470,273.240234 276.483673,263.117401 276.967133,251.153275 
	C277.447052,239.276428 269.746948,228.441208 258.462250,225.114075 
	C246.261902,221.516998 234.497192,226.628296 227.405441,239.117264 
z"/>
<path fill="#664C9D" opacity="1.000000" stroke="none" 
	d="
M255.300644,191.247589 
	C255.414108,192.024933 255.411133,193.026596 255.085220,193.145859 
	C237.970352,199.408890 220.828156,205.597260 202.638336,212.173233 
	C204.192963,195.781006 205.697800,179.913727 207.202637,164.046432 
	C207.781357,163.671021 208.360062,163.295624 208.938782,162.920212 
	C224.303696,172.300201 239.668610,181.680206 255.300644,191.247589 
z"/>
<path fill="#654C9D" opacity="1.000000" stroke="none" 
	d="
M312.582214,274.656494 
	C308.151062,276.530212 304.065399,278.244141 299.706421,280.072723 
	C299.706421,261.282288 299.706421,243.071671 299.706421,224.861053 
	C300.143341,224.510056 300.580261,224.159058 301.017181,223.808060 
	C314.818237,235.671906 328.619263,247.535751 343.418518,260.257721 
	C332.364532,265.419830 322.646088,269.958282 312.582214,274.656494 
z"/>
<path fill="#674D9C" opacity="1.000000" stroke="none" 
	d="
M273.601624,294.553894 
	C280.643616,291.943085 287.321228,289.475372 295.031555,286.626007 
	C293.733826,300.381165 292.513916,313.311310 291.173798,327.515778 
	C277.200562,318.998993 264.347198,311.164795 250.470184,302.706665 
	C258.927124,299.731445 266.082153,297.214233 273.601624,294.553894 
z"/>
<path fill="#664C9D" opacity="1.000000" stroke="none" 
	d="
M183.708954,225.681320 
	C188.401901,223.560410 192.758087,221.608154 197.834839,219.332993 
	C197.834839,234.141037 197.834839,248.119873 197.834839,263.703979 
	C186.550446,253.785980 176.106491,244.606659 164.944092,234.795883 
	C171.800858,231.467270 177.586533,228.658630 183.708954,225.681320 
z"/>
<path fill="#664C9D" opacity="1.000000" stroke="none" 
	d="
M204.119247,300.722931 
	C203.596695,291.580872 203.104263,282.898224 202.532394,272.815186 
	C215.930054,282.674591 228.011688,291.565521 241.309906,301.351746 
	C228.847656,304.809143 217.469208,307.965881 205.348984,311.328400 
	C204.906326,307.584442 204.527847,304.383392 204.119247,300.722931 
z"/>
<path fill="#674E9C" opacity="1.000000" stroke="none" 
	d="
M275.092285,199.902176 
	C272.453339,197.974091 270.102570,196.259079 266.660065,193.747559 
	C275.936035,191.092255 283.969971,188.792496 293.076904,186.185577 
	C293.831543,195.694580 294.525940,204.444489 295.323547,214.495270 
	C287.927460,209.162292 281.653961,204.638779 275.092285,199.902176 
z"/>
<path fill="#DEC955" opacity="1.000000" stroke="none" 
	d="
M227.588959,238.782410 
	C234.497192,226.628296 246.261902,221.516998 258.462250,225.114075 
	C269.746948,228.441208 277.447052,239.276428 276.967133,251.153275 
	C276.483673,263.117401 267.838470,273.240234 255.730164,275.494019 
	C245.948761,277.314667 237.529999,274.266968 231.184494,266.663818 
	C224.290115,258.403015 223.184601,249.051971 227.588959,238.782410 
z"/>
</svg>